<?xml version="1.0" encoding="utf-8"?>
<!-- Generator: Adobe Illustrator 19.0.0, SVG Export Plug-In . SVG Version: 6.00 Build 0)  -->
<svg version="1.1" id="Livello_1" xmlns="http://www.w3.org/2000/svg" xmlns:xlink="http://www.w3.org/1999/xlink" x="0px" y="0px"
	 viewBox="0 0 42 40" style="enable-background:new 0 0 42 40;" xml:space="preserve">
<style type="text/css">
	.st0{fill:#43656F;}
</style>
<path class="st0" d="M41.3,9.4L37.7,4l0.6-2.2c0.1-0.3,0-0.6-0.1-0.9c-0.2-0.3-0.4-0.4-0.7-0.5c-2.9-0.5-5.4,0-7.3,1.4
	c-3.7,2.7-4.6,7.9-4.9,10H14.4c-0.7,0-1.3,0.1-2,0.3c-0.6-1.8-2.2-3.1-4.2-3.1H6.9c-2.4,0-4.4,2-4.4,4.4v9.8c0,0.4,0.2,0.8,0.6,1
	c0.1,0.1,0.3,0.1,0.5,0.1c0.2,0,0.5-0.1,0.7-0.2l3.1-2.8c0.8,3.9,2,7.6,3,10.6c-2-0.7-3.7-1.7-4.9-2.8c-1.1-1-2.8-1.2-4-0.3
	c-0.8,0.6-1.3,1.4-1.4,2.4c-0.1,1,0.3,1.9,1,2.6c1.8,1.7,4.2,3.1,7,4.2c3.6,1.3,7.8,2,12.1,2c4.3,0,8.5-0.7,12.1-2
	c2.9-1.1,5.2-2.4,7-4.2c0.7-0.7,1.1-1.6,1-2.6c-0.1-1-0.6-1.9-1.4-2.4c-0.5-0.4-1.2-0.6-1.8-0.6c-0.8,0-1.6,0.3-2.2,0.9
	c-1.1,1.1-2.8,2-4.8,2.8c1.6-4.1,3.3-8.3,3.3-12.4c0-4.7,1.1-5.8,1.6-6.1c0.7-0.4,1.6,0.1,2.1,0.4c0.9,0.5,2,0.4,2.8-0.3l1.1-1
	C41.8,11.7,42,10.4,41.3,9.4L41.3,9.4z M16.1,14h9v0.2c0,2.2-1.9,4.1-4.1,4.1h-0.9c-2.2,0-4.1-1.8-4.1-4.1V14z M7.9,15.5
	c-0.7,1.2-1,2.4-1,3.7l-2.3,1.9v-7.6c0-1.2,1-2.3,2.2-2.3h1.3c1.1,0,1.9,0.7,2.2,1.8c0,0,0,0,0,0.1C9.4,13.7,8.5,14.6,7.9,15.5
	L7.9,15.5z M36.3,30.7c0.2-0.2,0.4-0.3,0.7-0.3c0.2,0,0.4,0.1,0.6,0.2c0.3,0.2,0.4,0.5,0.5,0.8c0,0.2,0,0.5-0.3,0.8c0,0,0,0,0,0
	c-1.6,1.5-3.7,2.8-6.3,3.7c-3.3,1.2-7.3,1.9-11.4,1.9c-4.1,0-8-0.7-11.4-1.9c-2.6-0.9-4.7-2.2-6.3-3.7c-0.3-0.3-0.3-0.7-0.3-0.8
	c0-0.3,0.2-0.6,0.5-0.8c0.2-0.1,0.4-0.2,0.6-0.2c0.3,0,0.5,0.1,0.7,0.3c1.8,1.7,4.5,3.1,7.9,4c0.2,0.1,0.5,0.1,0.8,0.2
	c1.2,0.3,2.4,0.5,3.7,0.6c2.5,0.3,5.2,0.3,7.7,0c1.3-0.1,2.5-0.3,3.7-0.6c0.2-0.1,0.5-0.1,0.8-0.2C31.8,33.8,34.5,32.4,36.3,30.7
	L36.3,30.7z M20.1,25.2c0.1,0,0.2,0,0.3,0c2.6,0,2.5,2.4,2.5,2.6v5.6c-1.7,0.1-3.5,0.1-5.3,0v-5.6C17.6,27.7,17.5,25.2,20.1,25.2
	L20.1,25.2z M39.5,10.9L39.5,10.9l-1.1,1c-0.1,0.1-0.2,0.1-0.3,0c-1.6-0.9-3.1-1.1-4.3-0.4c-1.8,1-2.6,3.6-2.6,8
	c0,3.8-1.6,7.9-3.2,11.9c-0.2,0.4-0.4,0.9-0.5,1.4c-0.1,0-0.1,0-0.2,0c-0.7,0.2-1.5,0.3-2.3,0.4v-5.4c0-0.9-0.4-4.7-4.4-4.7
	c-0.1,0-0.1,0-0.2,0c-0.2,0-0.3,0-0.5,0c-0.1,0-0.1,0-0.2,0c-4,0-4.3,3.8-4.3,4.7v5.4c-0.8-0.1-1.5-0.3-2.3-0.4c-0.1,0-0.1,0-0.2,0
	c-1.3-3.4-2.9-8.3-3.8-13.3c0,0,0-0.1,0-0.1c-0.3-2.1,1.3-3.9,2.9-4.7c0.6-0.3,1.3-0.5,1.9-0.6v0.2c0,3.4,2.8,6.2,6.2,6.2H21
	c3.4,0,6.3-2.8,6.3-6.2V13c0,0,0,0,0-0.1c0-0.2,0-0.4,0.1-0.6c0.3-1.9,1-6.5,4-8.6c1.2-0.9,2.8-1.3,4.6-1.2l-0.4,1.5
	c-0.1,0.3,0,0.6,0.1,0.9l3.9,5.8C39.6,10.7,39.6,10.8,39.5,10.9L39.5,10.9z M39.5,10.9"/>
<path class="st0" d="M34.7,7.1c0,0.4-0.4,0.8-0.8,0.8c-0.4,0-0.8-0.4-0.8-0.8c0-0.4,0.4-0.8,0.8-0.8C34.4,6.3,34.7,6.6,34.7,7.1
	L34.7,7.1z M34.7,7.1"/>
</svg>
