<?xml version="1.0" encoding="utf-8"?>
<!-- Generator: Adobe Illustrator 19.0.0, SVG Export Plug-In . SVG Version: 6.00 Build 0)  -->
<svg version="1.1" id="Livello_1" xmlns="http://www.w3.org/2000/svg" xmlns:xlink="http://www.w3.org/1999/xlink" x="0px" y="0px"
	 viewBox="0 0 43 45" style="enable-background:new 0 0 43 45;" xml:space="preserve">
<style type="text/css">
	.st0{fill:#43656F;}
</style>
<path class="st0" d="M8,9.6v10.8c0,2.2,3.2,5.4,7.2,5.4h18.9c4,0,7.2-3.3,7.2-7.3v-5.9c0-7-5.6-12.7-12.6-12.7h-4
	c-0.7,0-1.2,0.6-1.2,1.3v6.4c0,0.7,0.6,1.3,1.2,1.3c0.7,0,1.2-0.6,1.2-1.3V2.5h2.7c5.6,0,10.1,4.6,10.1,10.2v5.9
	c0,2.6-2.1,4.8-4.7,4.8H15.2c-2.6,0-4.7-2.1-4.7-4.8v0.2h12.8c1.5,0,2.7-1.2,2.7-2.8v-2.1h11.3c0.7,0,1.2-0.6,1.2-1.3
	c0-0.7-0.6-1.3-1.2-1.3H10.4V7.8c0-3.1-2.2-5.7-5.2-6.2C4.8,0.6,3.8,0,2.7,0C1.2,0,0,1.2,0,2.8c0,1.5,1.2,2.8,2.7,2.8
	c1,0,1.9-0.5,2.4-1.4C6.8,4.5,8,6,8,9.6z M10.4,13.9h13.1V16c0,0.1-0.1,0.3-0.2,0.3H10.4V13.9z M2.7,3.4c-0.4,0-0.7-0.3-0.7-0.7
	c0-0.4,0.3-0.7,0.7-0.7c0.4,0,0.7,0.3,0.7,0.7C3.4,3.1,3.1,3.4,2.7,3.4z"/>
<path class="st0" d="M34.1,27.1c-2.2,0-4.4,0.8-6,2.4c-1.5,1.4-2.5,3.3-2.8,5.3H24c-0.3-2-1.3-3.9-2.8-5.3c-1.6-1.5-3.8-2.4-6-2.4
	c-4.9,0-8.9,4-8.9,9s4,9,8.9,9c2.2,0,4.4-0.8,6-2.4c1.5-1.4,2.5-3.3,2.8-5.3h1.3c0.3,2,1.3,3.9,2.8,5.3c1.6,1.5,3.8,2.4,6,2.4
	c4.9,0,8.9-4,8.9-9S39,27.1,34.1,27.1z M15.2,42.5c-3.5,0-6.4-2.9-6.4-6.5c0-3.6,2.9-6.5,6.4-6.5c3.5,0,6.4,2.9,6.4,6.5
	C21.6,39.6,18.7,42.5,15.2,42.5z M34.1,42.5c-3.5,0-6.4-2.9-6.4-6.5c0-3.6,2.9-6.5,6.4-6.5c3.5,0,6.4,2.9,6.4,6.5
	C40.5,39.6,37.6,42.5,34.1,42.5z"/>
<path class="st0" d="M34.1,31.7c-2.4,0-4.3,2-4.3,4.4s1.9,4.4,4.3,4.4c0.7,0,1.5-0.2,2.1-0.6c0.2-0.1,0.4-0.3,0.4-0.5
	c0.1-0.2,0-0.5-0.1-0.7c-0.2-0.3-0.4-0.5-0.8-0.5c-0.1,0-0.3,0-0.4,0.1c-0.4,0.2-0.8,0.3-1.3,0.3c-1.4,0-2.6-1.2-2.6-2.6
	s1.2-2.6,2.6-2.6c1.4,0,2.6,1.2,2.6,2.6c0,0.4-0.1,0.9-0.3,1.3c-0.2,0.4-0.1,1,0.3,1.2c0.1,0.1,0.3,0.1,0.4,0.1c0,0,0,0,0,0
	c0.3,0,0.6-0.2,0.8-0.5c0.4-0.6,0.5-1.4,0.5-2.1C38.4,33.6,36.5,31.7,34.1,31.7z"/>
<path class="st0" d="M15.2,31.7c-2.4,0-4.3,2-4.3,4.4s1.9,4.4,4.3,4.4c0.7,0,1.5-0.2,2.1-0.6c0.2-0.1,0.4-0.3,0.4-0.5
	c0.1-0.2,0-0.5-0.1-0.7c-0.2-0.3-0.4-0.5-0.8-0.5c-0.1,0-0.3,0-0.4,0.1c-0.4,0.2-0.8,0.3-1.3,0.3c-1.4,0-2.6-1.2-2.6-2.6
	s1.2-2.6,2.6-2.6c1.4,0,2.6,1.2,2.6,2.6c0,0.4-0.1,0.9-0.3,1.3c-0.2,0.4-0.1,1,0.3,1.2c0.1,0.1,0.3,0.1,0.4,0.1l0,0
	c0.3,0,0.6-0.2,0.8-0.5c0.4-0.6,0.5-1.4,0.5-2.1C19.5,33.6,17.6,31.7,15.2,31.7z"/>
</svg>
