<?xml version="1.0" encoding="utf-8"?>
<!-- Generator: Adobe Illustrator 15.0.0, SVG Export Plug-In . SVG Version: 6.00 Build 0)  -->
<!DOCTYPE svg PUBLIC "-//W3C//DTD SVG 1.1//EN" "http://www.w3.org/Graphics/SVG/1.1/DTD/svg11.dtd">
<svg version="1.1" id="Livello_1" xmlns="http://www.w3.org/2000/svg" xmlns:xlink="http://www.w3.org/1999/xlink" x="0px" y="0px"
	 width="20px" height="20px" viewBox="0 0 20 20" enable-background="new 0 0 20 20" xml:space="preserve">
<path fill="#FFFFFF" d="M19.119,4.12l-5.926,5.992l5.926,5.994c0.881,0.891,0.881,2.335,0,3.227C18.679,19.779,18.102,20,17.524,20
	s-1.155-0.221-1.596-0.667L10,13.338l-5.926,5.995C3.633,19.779,3.055,20,2.478,20c-0.577,0-1.155-0.221-1.594-0.667
	C0,18.441,0,16.997,0.883,16.105l5.926-5.994L0.881,4.12C0,3.227,0,1.782,0.881,0.891C1.763,0,3.191,0,4.072,0.891L10,6.885
	l5.928-5.994c0.881-0.891,2.31-0.891,3.191,0C20,1.782,20,3.227,19.119,4.12L19.119,4.12z M19.119,4.12"/>
</svg>
