<?xml version="1.0" encoding="utf-8"?>
<!-- Generator: Adobe Illustrator 19.0.0, SVG Export Plug-In . SVG Version: 6.00 Build 0)  -->
<svg version="1.1" id="Livello_1" xmlns="http://www.w3.org/2000/svg" xmlns:xlink="http://www.w3.org/1999/xlink" x="0px" y="0px"
	 viewBox="0 0 39 36" style="enable-background:new 0 0 39 36;" xml:space="preserve">
<style type="text/css">
	.st0{fill:#43656F;}
</style>
<path class="st0" d="M38.5,0.4L38.5,0.4c-0.4-0.4-1-0.4-1.4-0.2L1.3,16c-0.8,0.3-1.3,1.1-1.2,2c0.1,0.9,0.6,1.6,1.4,1.9l10.1,3.3
	v9.1c0,1.1,0.7,2.1,1.8,2.4c0.2,0.1,0.5,0.1,0.8,0.1c0.8,0,1.6-0.4,2.1-1.1l4-5.9l8.8,7.6c0.4,0.3,0.8,0.5,1.4,0.5
	c0.3,0,0.5-0.1,0.6-0.1l0.1,0c0.8-0.3,1.3-0.9,1.4-1.6l6.4-32.6l0,0C39,1.3,38.8,0.8,38.5,0.4z M19,15.3c-0.3,0.2-0.5,0.6-0.5,0.9
	c0,0.4,0.1,0.7,0.3,1c0.2,0.3,0.6,0.5,1,0.5c0.3,0,0.6-0.1,0.9-0.3l9.1-7.3l-11,15.1l-4.6,6.8v-9.5c0-0.6-0.4-1.1-0.9-1.3l-9.7-3.2
	L30.5,6L19,15.3z M21.8,25.7L35.1,7.5l-5,25.4L21.8,25.7z"/>
<path class="st0" d="M16.2,17.8l-1.3,1c-0.3,0.2-0.5,0.6-0.5,0.9c0,0.4,0.1,0.7,0.3,1c0.2,0.3,0.6,0.5,1.1,0.5c0.2,0,0.5,0,0.8-0.3
	l1.3-1c0.3-0.2,0.5-0.6,0.5-0.9c0-0.4-0.1-0.7-0.3-1c-0.3-0.3-0.6-0.5-1-0.5C16.7,17.5,16.5,17.6,16.2,17.8z"/>
</svg>
