<?xml version="1.0" encoding="utf-8"?>
<!-- Generator: Adobe Illustrator 15.0.0, SVG Export Plug-In . SVG Version: 6.00 Build 0)  -->
<!DOCTYPE svg PUBLIC "-//W3C//DTD SVG 1.1//EN" "http://www.w3.org/Graphics/SVG/1.1/DTD/svg11.dtd">
<svg version="1.1" id="Livello_1" xmlns="http://www.w3.org/2000/svg" xmlns:xlink="http://www.w3.org/1999/xlink" x="0px" y="0px"
	 width="300px" height="270px" viewBox="0 0 300 270" enable-background="new 0 0 300 270" xml:space="preserve">
<path fill="#FFFFFF" d="M101.401,189.442c-1.857,1.88-1.857,4.941,0,6.822c0.928,0.946,2.143,1.416,3.375,1.416
	c1.208,0,2.417-0.47,3.345-1.416l57.156-57.862c0.44-0.421,0.786-0.964,1.024-1.555c0.488-1.175,0.488-2.519,0-3.694
	c-0.238-0.591-0.583-1.133-1.024-1.579L108.121,73.73c-1.857-1.88-4.857-1.88-6.72,0c-1.857,1.886-1.857,4.948,0,6.829
	l49.018,49.629H4.768c-2.631,0-4.769,2.14-4.769,4.797c0,2.688,2.137,4.827,4.769,4.827h145.651L101.401,189.442z M101.401,189.442"
	/>
<path fill="#FFFFFF" d="M295.262,0H47.62c-2.625,0-4.768,2.164-4.768,4.827v101.254c0,2.658,2.143,4.797,4.768,4.797
	c2.625,0,4.768-2.14,4.768-4.797V9.655h238.106v250.69H52.388v-96.426c0-2.658-2.143-4.827-4.768-4.827
	c-2.625,0-4.768,2.169-4.768,4.827v101.254c0,2.657,2.143,4.827,4.768,4.827h247.642c2.625,0,4.738-2.17,4.738-4.827V4.827
	C300,2.164,297.887,0,295.262,0L295.262,0z M295.262,0"/>
</svg>
