<?xml version="1.0" encoding="utf-8"?>
<!-- Generator: Adobe Illustrator 19.0.0, SVG Export Plug-In . SVG Version: 6.00 Build 0)  -->
<svg version="1.1" id="Livello_1" xmlns="http://www.w3.org/2000/svg" xmlns:xlink="http://www.w3.org/1999/xlink" x="0px" y="0px"
	 viewBox="0 0 40 44" style="enable-background:new 0 0 40 44;" xml:space="preserve">
<style type="text/css">
	.st0{fill:#43656F;}
</style>
<path class="st0" d="M36.5,6.7h-0.8V2c0-1.1-0.9-2-1.9-2H19.5c-1.1,0-1.9,0.9-1.9,2v4.7h-0.4C17,6,16.7,5.3,16.2,4.8
	c-0.6-0.6-1.4-1-2.3-1H3.2c-0.9,0-1.7,0.4-2.3,1C0.3,5.5,0,6.3,0,7.2l0.5,14.6c0,1,0,2.7,0,3.7L0,40.6c0,0.9,0.3,1.7,0.9,2.4
	c0.6,0.6,1.4,1,2.3,1h10.7c0.9,0,1.7-0.4,2.3-1c0.4-0.4,0.6-0.8,0.7-1.3h18.8c2.3,0,4.2-1.9,4.2-4.3V11C40,8.6,38.4,6.7,36.5,6.7
	L36.5,6.7z M20.3,2.8h12.6V13H20.3V2.8z M14.2,41c-0.1,0.1-0.1,0.1-0.3,0.1H3.2c-0.1,0-0.2-0.1-0.3-0.1c-0.1-0.1-0.1-0.2-0.1-0.3
	l0.5-15.1c0-1.1,0-2.8,0-3.9L2.8,7.1c0-0.1,0.1-0.2,0.1-0.3C3,6.7,3.1,6.7,3.2,6.7h10.7c0.1,0,0.2,0.1,0.3,0.1
	c0.1,0.1,0.1,0.2,0.1,0.3l-0.5,14.6c0,1.1,0,2.8,0,3.9l0.5,15.1C14.4,40.9,14.3,41,14.2,41L14.2,41z M37.2,37.4
	c0,0.8-0.6,1.4-1.4,1.4H17.1l-0.5-13.3c0-1,0-2.7,0-3.7L17,9.5h0.5v4.3c0,1.1,0.9,2,1.9,2h14.2c1.1,0,1.9-0.9,1.9-2V9.5h0.8
	c0.3,0,0.8,0.6,0.8,1.4V37.4z M37.2,37.4"/>
<path class="st0" d="M21.2,20h-1.6c-0.8,0-1.4,0.6-1.4,1.4c0,0.8,0.6,1.4,1.4,1.4h1.6c0.8,0,1.4-0.6,1.4-1.4
	C22.6,20.6,22,20,21.2,20L21.2,20z M21.2,20"/>
<path class="st0" d="M27.3,20h-1.6c-0.8,0-1.4,0.6-1.4,1.4c0,0.8,0.6,1.4,1.4,1.4h1.6c0.8,0,1.4-0.6,1.4-1.4
	C28.7,20.6,28.1,20,27.3,20L27.3,20z M27.3,20"/>
<path class="st0" d="M33.4,20h-1.6c-0.8,0-1.4,0.6-1.4,1.4c0,0.8,0.6,1.4,1.4,1.4h1.6c0.8,0,1.4-0.6,1.4-1.4
	C34.8,20.6,34.1,20,33.4,20L33.4,20z M33.4,20"/>
<path class="st0" d="M21.2,25.4h-1.6c-0.8,0-1.4,0.6-1.4,1.4c0,0.8,0.6,1.4,1.4,1.4h1.6c0.8,0,1.4-0.6,1.4-1.4
	C22.6,26,22,25.4,21.2,25.4L21.2,25.4z M21.2,25.4"/>
<path class="st0" d="M27.3,25.4h-1.6c-0.8,0-1.4,0.6-1.4,1.4c0,0.8,0.6,1.4,1.4,1.4h1.6c0.8,0,1.4-0.6,1.4-1.4
	C28.7,26,28.1,25.4,27.3,25.4L27.3,25.4z M27.3,25.4"/>
<path class="st0" d="M33.4,25.4h-1.6c-0.8,0-1.4,0.6-1.4,1.4c0,0.8,0.6,1.4,1.4,1.4h1.6c0.8,0,1.4-0.6,1.4-1.4
	C34.8,26,34.1,25.4,33.4,25.4L33.4,25.4z M33.4,25.4"/>
<path class="st0" d="M21.2,30.9h-1.6c-0.8,0-1.4,0.6-1.4,1.4c0,0.8,0.6,1.4,1.4,1.4h1.6c0.8,0,1.4-0.6,1.4-1.4
	C22.6,31.5,22,30.9,21.2,30.9L21.2,30.9z M21.2,30.9"/>
<path class="st0" d="M27.3,30.9h-1.6c-0.8,0-1.4,0.6-1.4,1.4c0,0.8,0.6,1.4,1.4,1.4h1.6c0.8,0,1.4-0.6,1.4-1.4
	C28.7,31.5,28.1,30.9,27.3,30.9L27.3,30.9z M27.3,30.9"/>
<path class="st0" d="M33.4,30.9h-1.6c-0.8,0-1.4,0.6-1.4,1.4c0,0.8,0.6,1.4,1.4,1.4h1.6c0.8,0,1.4-0.6,1.4-1.4
	C34.8,31.5,34.1,30.9,33.4,30.9L33.4,30.9z M33.4,30.9"/>
<path class="st0" d="M29.9,4.3h-6.6c-0.5,0-0.9,0.4-0.9,0.9c0,0.5,0.4,0.9,0.9,0.9h6.6c0.5,0,0.9-0.4,0.9-0.9
	C30.8,4.7,30.4,4.3,29.9,4.3L29.9,4.3z M29.9,4.3"/>
<path class="st0" d="M27.2,8.4h-3.9c-0.5,0-0.9,0.4-0.9,0.9c0,0.5,0.4,0.9,0.9,0.9h3.9c0.5,0,0.9-0.4,0.9-0.9
	C28.1,8.8,27.7,8.4,27.2,8.4L27.2,8.4z M27.2,8.4"/>
</svg>
