<?xml version="1.0" encoding="utf-8"?>
<!-- Generator: Adobe Illustrator 15.0.0, SVG Export Plug-In . SVG Version: 6.00 Build 0)  -->
<!DOCTYPE svg PUBLIC "-//W3C//DTD SVG 1.1//EN" "http://www.w3.org/Graphics/SVG/1.1/DTD/svg11.dtd">
<svg version="1.1" id="Livello_1" xmlns="http://www.w3.org/2000/svg" xmlns:xlink="http://www.w3.org/1999/xlink" x="0px" y="0px"
	 width="100px" height="100px" viewBox="0 0 100 100" enable-background="new 0 0 100 100" xml:space="preserve">
<path fill="#43656F" d="M50,0C22.432,0,0,22.432,0,50s22.432,50,50,50s50-22.432,50-50S77.568,0,50,0L50,0z M50,96.149
	C24.554,96.149,3.851,75.446,3.851,50S24.554,3.851,50,3.851S96.149,24.554,96.149,50S75.446,96.149,50,96.149L50,96.149z
	 M50,96.149"/>
<path fill="#43656F" d="M50,19.23c-1.063,0-1.925,0.863-1.925,1.925v42.298c0,1.072,0.863,1.925,1.925,1.925
	c1.06,0,1.925-0.853,1.925-1.925V21.155C51.925,20.093,51.06,19.23,50,19.23L50,19.23z M50,19.23"/>
<path fill="#43656F" d="M50,71.155c-1.063,0-1.925,0.854-1.925,1.913v3.851c0,1.06,0.863,1.925,1.925,1.925
	c1.06,0,1.925-0.865,1.925-1.925v-3.851C51.925,72.009,51.06,71.155,50,71.155L50,71.155z M50,71.155"/>
</svg>
