<?xml version="1.0" encoding="utf-8"?>
<!-- Generator: Adobe Illustrator 15.0.0, SVG Export Plug-In . SVG Version: 6.00 Build 0)  -->
<!DOCTYPE svg PUBLIC "-//W3C//DTD SVG 1.1//EN" "http://www.w3.org/Graphics/SVG/1.1/DTD/svg11.dtd">
<svg version="1.1" id="Livello_1" xmlns="http://www.w3.org/2000/svg" xmlns:xlink="http://www.w3.org/1999/xlink" x="0px" y="0px"
	 width="100px" height="100px" viewBox="0 0 100 100" enable-background="new 0 0 100 100" xml:space="preserve">
<path fill="#43656F" d="M50,100c-27.57,0-50-22.429-50-50C0,22.429,22.429,0,50,0c9.339,0,18.45,2.592,26.347,7.497
	c1.381,0.857,1.411,1.753,0.812,2.653c-0.6,0.75-1.648,0.525-2.517,0.088C67.258,5.652,58.737,3.229,50,3.229
	C24.21,3.229,3.229,24.211,3.229,50C3.229,75.789,24.21,96.771,50,96.771c25.79,0,46.771-20.982,46.771-46.771
	c0-5.184-0.841-10.273-2.501-15.127c-0.557-1.628-0.251-2.391,0.573-2.69c1.049-0.375,1.957,0.11,2.482,1.646
	C99.1,39.021,100,44.463,100,50C100,77.571,77.571,100,50,100L50,100z M50,100"/>
<path fill="#43656F" d="M50,66.964c-0.746,0-1.467-0.284-2.013-0.798l-22.313-21.02c-1.184-1.112-1.723-2.098-0.824-3.222
	c1.112-1.182,2.45-0.865,3.634,0.25L49.75,62.151l38.643-45.873c1.045-1.242,2.479-1.332,3.378-0.583
	c0.899,0.75,0.823,2.28-0.225,3.522l-39.298,46.7c-0.52,0.617-1.272,0.994-2.077,1.042C50.115,66.961,50.056,66.964,50,66.964
	L50,66.964z M50,66.964"/>
</svg>
