<?xml version="1.0" encoding="utf-8"?>
<!-- Generator: Adobe Illustrator 15.0.0, SVG Export Plug-In . SVG Version: 6.00 Build 0)  -->
<!DOCTYPE svg PUBLIC "-//W3C//DTD SVG 1.1//EN" "http://www.w3.org/Graphics/SVG/1.1/DTD/svg11.dtd">
<svg version="1.1" id="Livello_1" xmlns="http://www.w3.org/2000/svg" xmlns:xlink="http://www.w3.org/1999/xlink" x="0px" y="0px"
	 width="64px" height="50px" viewBox="0 0 64 50" enable-background="new 0 0 64 50" xml:space="preserve">
<path fill="#FFFFFF" d="M58.639,12.037H46.793V5.368c0-2.96-2.404-5.368-5.36-5.368H5.36C2.405,0,0,2.408,0,5.368v20.569
	c0,2.959,2.405,5.366,5.36,5.366h2.746v5.438c0,0.499,0.303,0.948,0.765,1.134c0.148,0.06,0.303,0.088,0.456,0.088
	c0.325,0,0.645-0.13,0.88-0.374l6.044-6.286h0.955v6.671c0,2.959,2.405,5.367,5.361,5.367h25.182l6.045,6.284
	C54.029,49.87,54.348,50,54.674,50c0.154,0,0.309-0.029,0.456-0.088c0.462-0.186,0.764-0.635,0.764-1.134v-5.437h2.745
	c2.957,0,5.361-2.408,5.361-5.367v-20.57C64,14.445,61.595,12.037,58.639,12.037L58.639,12.037z M17.206,17.404v11.456h-1.474
	c-0.332,0-0.649,0.135-0.879,0.374l-4.305,4.477v-3.628c0-0.676-0.546-1.222-1.221-1.222H5.36c-1.609,0-2.919-1.311-2.919-2.922
	V5.368c0-1.612,1.31-2.924,2.919-2.924h36.073c1.609,0,2.919,1.312,2.919,2.924v6.669H22.567
	C19.61,12.037,17.206,14.445,17.206,17.404L17.206,17.404z M61.559,37.974c0,1.612-1.31,2.923-2.92,2.923h-3.965
	c-0.674,0-1.221,0.546-1.221,1.222v3.628l-4.305-4.477c-0.229-0.239-0.547-0.374-0.879-0.374H22.567c-1.61,0-2.92-1.311-2.92-2.923
	v-20.57c0-1.612,1.31-2.922,2.92-2.922h36.072c1.61,0,2.92,1.311,2.92,2.922V37.974z M61.559,37.974"/>
</svg>
