<?xml version="1.0" encoding="utf-8"?>
<!-- Generator: Adobe Illustrator 15.0.0, SVG Export Plug-In . SVG Version: 6.00 Build 0)  -->
<!DOCTYPE svg PUBLIC "-//W3C//DTD SVG 1.1//EN" "http://www.w3.org/Graphics/SVG/1.1/DTD/svg11.dtd">
<svg version="1.1" id="Livello_1" xmlns="http://www.w3.org/2000/svg" xmlns:xlink="http://www.w3.org/1999/xlink" x="0px" y="0px"
	 width="54px" height="30px" viewBox="0 0 54 30" enable-background="new 0 0 54 30" xml:space="preserve">
<path fill="#FFFFFF" d="M19.967,7.457c-0.38,0.631-1.07,1.023-1.801,1.023c-0.384,0-0.76-0.106-1.09-0.309
	c-0.48-0.294-0.819-0.762-0.953-1.314c-0.135-0.555-0.048-1.127,0.243-1.614c0.229-0.381,0.979-1.558,2.086-2.596l-6.35-1.459
	L0,13.447l11.159,11.306l12.103-12.261l-1.576-7.04C21.137,5.888,20.421,6.697,19.967,7.457z"/>
<path fill="#FFFFFF" d="M31.82,23.534c-0.069,0-0.14-0.008-0.209-0.028c-6.831-1.848-6.884-7.733-6.927-12.461
	c-0.021-2.35-0.042-4.569-0.838-5.958c-0.481-0.84-1.003-1.269-1.552-1.273c-0.004,0-0.008,0-0.011,0
	c-1.347,0-2.961,2.189-3.421,2.959C18.628,7.16,18.13,7.285,17.748,7.05c-0.383-0.236-0.506-0.741-0.274-1.128
	c0.23-0.385,2.316-3.751,4.808-3.751c0.009,0,0.018,0,0.026,0c1.162,0.01,2.15,0.715,2.939,2.091
	c1.011,1.764,1.033,4.194,1.058,6.767c0.042,4.605,0.084,9.364,5.724,10.892c0.432,0.116,0.689,0.566,0.574,1.004
	C32.506,23.293,32.178,23.534,31.82,23.534z"/>
<path fill="#FFFFFF" d="M48.362,0L36.705,11.809l-5.234-1.419l-3.751,3.8c0.283,3.369,1.243,5.543,4.643,6.464
	c0.543,0.147,0.998,0.499,1.28,0.992c0.281,0.492,0.357,1.068,0.211,1.62c-0.247,0.932-1.083,1.581-2.034,1.581
	c-0.198,0-0.391-0.027-0.543-0.073c-3.182-0.861-5.061-2.543-6.188-4.54l1.89,7.14L36.659,30l7.086-7.179l-1.403-5.301l4.165-4.218
	V9.279h3.542V5.69H54V0H48.362z"/>
</svg>
