<?xml version="1.0" encoding="utf-8"?>
<!-- Generator: Adobe Illustrator 15.0.0, SVG Export Plug-In . SVG Version: 6.00 Build 0)  -->
<!DOCTYPE svg PUBLIC "-//W3C//DTD SVG 1.1//EN" "http://www.w3.org/Graphics/SVG/1.1/DTD/svg11.dtd">
<svg version="1.1" id="Livello_1" xmlns="http://www.w3.org/2000/svg" xmlns:xlink="http://www.w3.org/1999/xlink" x="0px" y="0px"
	 width="37px" height="34px" viewBox="0 0 37 34" enable-background="new 0 0 37 34" xml:space="preserve">
<path fill="#FFFFFF" d="M8.511,18.591c0-3.312,1.29-6.434,3.626-8.775c1.262-1.264,2.747-2.22,4.368-2.835
	c-0.09-0.674-0.434-1.292-0.973-1.723L9.895,0.767c-0.961-0.768-2.322-0.768-3.283,0L0.984,5.258C0.355,5.759,0,6.522,0,7.326
	v20.935c0,1.456,1.157,2.603,2.61,2.603h11.286c0.808,0,1.531-0.348,2.016-0.923c-1.391-0.611-2.669-1.473-3.774-2.582
	C9.8,25.015,8.511,21.909,8.511,18.591L8.511,18.591z M6.022,6.449c0-1.233,1-2.236,2.231-2.236s2.23,1.003,2.23,2.236
	c0,1.237-1,2.235-2.23,2.235S6.022,7.686,6.022,6.449L6.022,6.449z M6.022,6.449"/>
<path fill="#FFFFFF" d="M36.031,29.744l-5.815-5.827c0.918-1.606,1.407-3.426,1.407-5.326c0-2.87-1.118-5.572-3.141-7.601
	c-2.028-2.032-4.72-3.151-7.588-3.151c-2.865,0-5.561,1.12-7.584,3.151c-2.028,2.029-3.142,4.731-3.142,7.601
	c0,2.872,1.113,5.573,3.142,7.601c2.024,2.033,4.72,3.153,7.584,3.153c2.141,0,4.188-0.627,5.931-1.79l5.693,5.705
	c0.488,0.485,1.122,0.733,1.759,0.733c0.632,0,1.27-0.244,1.754-0.733C37,32.289,37,30.715,36.031,29.744L36.031,29.744z
	 M26.782,24.493c-1.571,1.579-3.666,2.448-5.888,2.448c-2.224,0-4.318-0.869-5.889-2.448c-1.575-1.574-2.439-3.673-2.439-5.901
	c0-2.228,0.869-4.327,2.439-5.9c1.575-1.579,3.665-2.444,5.889-2.444c2.223,0,4.317,0.865,5.888,2.444
	C30.029,15.945,30.029,21.239,26.782,24.493L26.782,24.493z M26.782,24.493"/>
<path fill="#FFFFFF" d="M16.173,13.865c-1.258,1.261-1.954,2.941-1.954,4.727c0,1.787,0.695,3.466,1.954,4.731
	c1.262,1.261,2.938,1.958,4.72,1.958c0.093,0,0.187-0.004,0.281-0.007V11.911c-0.094-0.003-0.188-0.007-0.281-0.007
	C19.111,11.903,17.436,12.601,16.173,13.865L16.173,13.865z M16.173,13.865"/>
</svg>
