<?xml version="1.0" encoding="utf-8"?>
<!-- Generator: Adobe Illustrator 15.0.0, SVG Export Plug-In . SVG Version: 6.00 Build 0)  -->
<!DOCTYPE svg PUBLIC "-//W3C//DTD SVG 1.1//EN" "http://www.w3.org/Graphics/SVG/1.1/DTD/svg11.dtd">
<svg version="1.1" id="Livello_1" xmlns="http://www.w3.org/2000/svg" xmlns:xlink="http://www.w3.org/1999/xlink" x="0px" y="0px"
	 width="50px" height="49px" viewBox="0 0 50 49" enable-background="new 0 0 50 49" xml:space="preserve">
<path fill="#FFFFFF" d="M8.217,37.692c-0.195-0.342-0.637-0.456-0.976-0.259l-1.787,1.045v-2.081c0-0.394-0.318-0.714-0.708-0.714
	c-0.391,0-0.709,0.321-0.709,0.714v2.081L2.25,37.434c-0.339-0.197-0.781-0.083-0.976,0.259c-0.196,0.342-0.083,0.787,0.257,0.983
	l1.797,1.056l-1.797,1.056c-0.339,0.197-0.453,0.642-0.257,0.984c0.195,0.342,0.636,0.456,0.976,0.259l1.787-1.046v2.082
	c0,0.394,0.318,0.715,0.709,0.715c0.39,0,0.708-0.321,0.708-0.715v-2.082l1.787,1.046c0.339,0.197,0.78,0.083,0.976-0.259
	s0.083-0.787-0.257-0.984l-1.797-1.056l1.797-1.056C8.299,38.469,8.422,38.034,8.217,37.692L8.217,37.692z M8.217,37.692"/>
<path fill="#FFFFFF" d="M14.78,41.762c0.195,0.342,0.636,0.456,0.976,0.259l1.788-1.046v2.082c0,0.394,0.318,0.715,0.708,0.715
	s0.708-0.321,0.708-0.715v-2.082l1.788,1.046c0.338,0.197,0.78,0.083,0.976-0.259c0.195-0.341,0.082-0.787-0.257-0.983l-1.797-1.056
	l1.797-1.057c0.339-0.196,0.452-0.642,0.257-0.984c-0.195-0.342-0.637-0.456-0.976-0.259l-1.788,1.046v-2.082
	c0-0.394-0.318-0.715-0.708-0.715s-0.708,0.321-0.708,0.715v2.082l-1.788-1.036c-0.339-0.197-0.78-0.083-0.976,0.259
	c-0.195,0.342-0.082,0.787,0.257,0.983l1.797,1.056l-1.797,1.046C14.698,40.975,14.585,41.42,14.78,41.762L14.78,41.762z
	 M14.78,41.762"/>
<path fill="#FFFFFF" d="M13.506,47.188v1.263c0,0.3,0.247,0.549,0.545,0.549h8.412c0.298,0,0.544-0.249,0.544-0.549v-1.263
	c0-0.3-0.246-0.549-0.544-0.549h-8.412C13.743,46.639,13.506,46.888,13.506,47.188L13.506,47.188z M13.506,47.188"/>
<path fill="#FFFFFF" d="M34.007,11.877h-0.062V9.061c0-4.898-3.975-9.061-8.823-8.978c-4.714,0.083-8.535,3.977-8.535,8.75v0.269
	c0,0.404,0.329,0.736,0.729,0.736h2.332c0.401,0,0.729-0.332,0.729-0.736V9.019c0-2.63,1.962-4.939,4.571-5.105
	c2.834-0.176,5.197,2.091,5.197,4.908v3.044h-7.19v0.01h-6.646c-1.232,0.042-2.229,1.046-2.229,2.299v12.737
	c0,1.273,1.027,2.309,2.29,2.309h17.625c1.264,0,2.291-1.036,2.291-2.309V14.186C36.298,12.913,35.271,11.877,34.007,11.877
	L34.007,11.877z M26.551,21.124c-0.175,0.125-0.227,0.259-0.227,0.466c0.011,0.933,0.011,1.864,0,2.806
	c0.021,0.394-0.174,0.767-0.523,0.942c-0.812,0.415-1.623-0.166-1.623-0.942V21.58c0-0.187-0.041-0.321-0.206-0.445
	c-0.842-0.622-1.119-1.688-0.698-2.63c0.411-0.911,1.407-1.449,2.342-1.253c1.048,0.208,1.777,1.067,1.787,2.113
	C27.434,20.099,27.136,20.7,26.551,21.124L26.551,21.124z M26.551,21.124"/>
<path fill="#FFFFFF" d="M27.003,47.188v1.263c0,0.3,0.246,0.549,0.544,0.549h8.412c0.298,0,0.544-0.249,0.544-0.549v-1.263
	c0-0.3-0.247-0.549-0.544-0.549h-8.412C27.249,46.639,27.003,46.888,27.003,47.188L27.003,47.188z M27.003,47.188"/>
<path fill="#FFFFFF" d="M28.276,41.762c0.195,0.342,0.637,0.456,0.976,0.259l1.787-1.046v2.082c0,0.394,0.318,0.715,0.708,0.715
	c0.39,0,0.709-0.321,0.709-0.715v-2.082l1.787,1.046c0.338,0.197,0.781,0.083,0.976-0.259c0.195-0.341,0.082-0.787-0.257-0.983
	l-1.797-1.056l1.797-1.057c0.339-0.196,0.452-0.642,0.257-0.984c-0.195-0.342-0.637-0.456-0.976-0.259l-1.787,1.046v-2.082
	c0-0.394-0.319-0.715-0.709-0.715c-0.391,0-0.708,0.321-0.708,0.715v2.082l-1.787-1.046c-0.339-0.197-0.781-0.083-0.976,0.259
	c-0.195,0.342-0.082,0.788,0.257,0.984l1.797,1.057l-1.797,1.056C28.194,40.975,28.081,41.42,28.276,41.762L28.276,41.762z
	 M28.276,41.762"/>
<path fill="#FFFFFF" d="M49.456,46.639h-8.412c-0.298,0-0.544,0.249-0.544,0.549v1.263c0,0.3,0.247,0.549,0.544,0.549h8.412
	C49.753,49,50,48.751,50,48.451v-1.263C50,46.888,49.753,46.639,49.456,46.639L49.456,46.639z M49.456,46.639"/>
<path fill="#FFFFFF" d="M0.544,49h8.413c0.297,0,0.544-0.249,0.544-0.549v-1.263c0-0.3-0.247-0.549-0.544-0.549H0.544
	C0.247,46.639,0,46.888,0,47.188v1.263C0,48.751,0.247,49,0.544,49L0.544,49z M0.544,49"/>
<path fill="#FFFFFF" d="M41.783,41.762c0.195,0.342,0.636,0.456,0.976,0.259l1.787-1.046v2.082c0,0.394,0.318,0.715,0.708,0.715
	c0.391,0,0.709-0.321,0.709-0.715v-2.082l1.788,1.046c0.338,0.197,0.78,0.083,0.975-0.259c0.195-0.341,0.083-0.787-0.256-0.983
	l-1.798-1.056l1.798-1.057c0.339-0.196,0.452-0.642,0.256-0.984c-0.195-0.342-0.637-0.456-0.975-0.259l-1.788,1.046v-2.082
	c0-0.394-0.318-0.715-0.709-0.715c-0.39,0-0.708,0.321-0.708,0.715v2.082l-1.787-1.046c-0.339-0.197-0.78-0.083-0.976,0.259
	c-0.195,0.342-0.083,0.788,0.257,0.984l1.797,1.057l-1.797,1.056C41.701,40.975,41.578,41.42,41.783,41.762L41.783,41.762z
	 M41.783,41.762"/>
</svg>
