<?xml version="1.0" encoding="utf-8"?>
<!-- Generator: Adobe Illustrator 15.0.0, SVG Export Plug-In . SVG Version: 6.00 Build 0)  -->
<!DOCTYPE svg PUBLIC "-//W3C//DTD SVG 1.1//EN" "http://www.w3.org/Graphics/SVG/1.1/DTD/svg11.dtd">
<svg version="1.1" id="Livello_1" xmlns="http://www.w3.org/2000/svg" xmlns:xlink="http://www.w3.org/1999/xlink" x="0px" y="0px"
	 width="48px" height="48px" viewBox="0 0 48 48" enable-background="new 0 0 48 48" xml:space="preserve">
<path fill="#FFFFFF" d="M40.801,6.883V6.867l-0.25-0.238c-0.113-0.106-0.231-0.207-0.348-0.313c-0.051-0.05-0.101-0.097-0.156-0.144
	c-0.238-0.215-0.481-0.422-0.723-0.629c-0.047-0.035-0.09-0.074-0.133-0.109c-0.261-0.211-0.523-0.418-0.793-0.622
	c-0.031-0.023-0.066-0.05-0.097-0.074c-0.281-0.211-0.567-0.414-0.856-0.609c-0.023-0.016-0.047-0.031-0.07-0.047
	c-0.301-0.203-0.602-0.394-0.91-0.582c-0.02-0.012-0.039-0.023-0.059-0.035c-0.308-0.188-0.625-0.371-0.941-0.543
	c-0.024-0.012-0.043-0.024-0.067-0.035c-0.312-0.172-0.632-0.332-0.953-0.489c-0.031-0.015-0.062-0.031-0.09-0.043
	c-0.312-0.152-0.628-0.293-0.949-0.429c-0.043-0.02-0.086-0.039-0.129-0.059c-0.304-0.125-0.613-0.246-0.922-0.363
	c-0.011-0.004-0.019-0.008-0.031-0.012c-0.012-0.004-0.023-0.008-0.035-0.012c-0.039-0.015-0.082-0.031-0.121-0.042
	c-0.293-0.106-0.582-0.208-0.879-0.301c-0.082-0.028-0.168-0.055-0.25-0.078c-0.277-0.086-0.555-0.164-0.836-0.239
	c-0.101-0.027-0.207-0.058-0.312-0.086c-0.262-0.066-0.528-0.125-0.793-0.179c-0.121-0.028-0.243-0.059-0.368-0.082
	c-0.25-0.051-0.503-0.094-0.757-0.137c-0.137-0.024-0.274-0.047-0.414-0.066c-0.247-0.04-0.497-0.067-0.747-0.098
	c-0.144-0.016-0.285-0.035-0.429-0.051c-0.27-0.027-0.535-0.043-0.805-0.062c-0.129-0.008-0.254-0.02-0.383-0.028
	C24.801,0.012,24.402,0,24,0s-0.801,0.012-1.195,0.031c-0.129,0.004-0.258,0.02-0.387,0.028c-0.266,0.015-0.535,0.035-0.801,0.062
	c-0.144,0.012-0.289,0.031-0.429,0.051c-0.254,0.027-0.5,0.058-0.75,0.094c-0.137,0.019-0.274,0.046-0.411,0.07
	c-0.254,0.039-0.507,0.086-0.761,0.133c-0.121,0.027-0.246,0.054-0.368,0.082c-0.265,0.058-0.531,0.117-0.793,0.183
	C18,0.762,17.898,0.789,17.793,0.816c-0.277,0.075-0.559,0.153-0.832,0.239c-0.086,0.027-0.168,0.054-0.254,0.082
	c-0.293,0.093-0.586,0.191-0.879,0.297c-0.039,0.015-0.078,0.027-0.121,0.043c-0.012,0.003-0.019,0.007-0.031,0.015
	c-0.012,0.004-0.024,0.008-0.035,0.012c-0.309,0.113-0.614,0.234-0.918,0.363c-0.047,0.02-0.09,0.035-0.133,0.055
	c-0.317,0.137-0.633,0.277-0.945,0.43c-0.032,0.015-0.063,0.027-0.09,0.043c-0.325,0.156-0.641,0.32-0.957,0.488
	c-0.02,0.012-0.043,0.023-0.063,0.035c-0.32,0.176-0.633,0.355-0.945,0.543c-0.02,0.012-0.035,0.023-0.059,0.035
	c-0.304,0.188-0.609,0.383-0.906,0.582c-0.023,0.02-0.047,0.031-0.07,0.051C10.266,4.324,9.98,4.527,9.699,4.734
	C9.664,4.762,9.633,4.785,9.598,4.812c-0.266,0.2-0.532,0.407-0.789,0.622c-0.047,0.035-0.09,0.07-0.133,0.109
	C8.43,5.746,8.188,5.957,7.949,6.172l-0.156,0.14C7.68,6.422,7.562,6.523,7.449,6.629l-0.25,0.238v0.016C2.762,11.238,0,17.301,0,24
	c0,13.234,10.766,24,24,24s24-10.766,24-24C48,17.301,45.238,11.238,40.801,6.883L40.801,6.883z M23.992,41.57l0.004,0.004h-0.012
	L23.992,41.57z M17.609,32.355c1.661-1.757,3.953-2.753,6.391-2.753s4.73,0.996,6.391,2.753L24,40.363L17.609,32.355z
	 M31.395,31.102C29.445,29.125,26.805,28,24,28s-5.445,1.125-7.395,3.102l-7.48-9.375L16,16.223l7.211,5.769v0.078l0.246,0.121
	l0.43,0.317l0.125-0.059l0.133,0.059l0.394-0.317l0.262-0.14v-0.067L32,16.227l6.875,5.5L31.395,31.102z M8.945,7.426
	c0,0,0.004-0.004,0.008-0.004c1.32-1.203,2.789-2.25,4.371-3.11c0.008-0.003,0.016-0.011,0.028-0.015
	c0.3-0.164,0.605-0.32,0.918-0.469c0.027-0.016,0.05-0.027,0.078-0.039c0.281-0.133,0.566-0.262,0.851-0.387v11.414l-6.398,5.118
	V7.566C8.848,7.52,8.895,7.473,8.945,7.426L8.945,7.426z M17.473,2.574c0.246-0.078,0.496-0.148,0.75-0.215
	c0.105-0.027,0.211-0.058,0.32-0.082c0.234-0.058,0.469-0.113,0.707-0.164c0.125-0.027,0.246-0.054,0.371-0.078
	c0.227-0.047,0.453-0.086,0.684-0.125c0.133-0.019,0.265-0.047,0.398-0.066c0.227-0.032,0.457-0.059,0.684-0.086
	c0.136-0.016,0.273-0.035,0.41-0.047c0.242-0.023,0.488-0.043,0.734-0.059c0.121-0.007,0.242-0.019,0.364-0.023
	c0.101-0.004,0.203-0.004,0.304-0.008v18.317l-6.398-5.122V2.793c0.133-0.047,0.269-0.094,0.406-0.137
	C17.293,2.629,17.383,2.602,17.473,2.574L17.473,2.574z M25.469,1.652c0.246,0.016,0.492,0.036,0.734,0.059
	c0.137,0.012,0.274,0.031,0.41,0.047c0.227,0.027,0.457,0.054,0.684,0.086c0.133,0.019,0.265,0.047,0.398,0.066
	c0.231,0.039,0.457,0.078,0.684,0.125c0.125,0.024,0.246,0.051,0.371,0.078c0.238,0.051,0.473,0.106,0.707,0.164
	c0.109,0.028,0.215,0.055,0.32,0.082c0.254,0.067,0.504,0.137,0.75,0.215c0.09,0.028,0.176,0.055,0.266,0.082
	c0.137,0.043,0.273,0.09,0.406,0.137v12.023l-6.398,5.122V1.621c0.101,0.004,0.203,0,0.304,0.008
	C25.227,1.633,25.348,1.645,25.469,1.652L25.469,1.652z M33.734,3.828c0.309,0.149,0.614,0.305,0.914,0.469
	c0.012,0.004,0.02,0.012,0.032,0.015c1.578,0.86,3.047,1.907,4.367,3.11c0.004,0,0.008,0.004,0.008,0.004
	c0.05,0.047,0.097,0.094,0.144,0.14v12.368l-6.398-5.118V3.402c0.285,0.125,0.57,0.254,0.851,0.387
	C33.68,3.801,33.707,3.812,33.734,3.828L33.734,3.828z M24,46.398C11.648,46.398,1.602,36.352,1.602,24
	c0-5.668,2.117-10.844,5.597-14.793v12.672l16.012,20.059l0.004,0.16v0.007l0.254,0.122l0.398,0.312l0.016-0.008l0.008,0.004
	l0.121-0.062l0.125,0.058l0.008-0.004l0.015,0.008l0.375-0.312l0.11-0.059l0.156-0.082v-0.156l16-20.047V9.207
	c3.48,3.949,5.597,9.125,5.597,14.793C46.398,36.352,36.352,46.398,24,46.398L24,46.398z M24,46.398"/>
</svg>
