<?xml version="1.0" encoding="utf-8"?>
<!-- Generator: Adobe Illustrator 15.0.0, SVG Export Plug-In . SVG Version: 6.00 Build 0)  -->
<!DOCTYPE svg PUBLIC "-//W3C//DTD SVG 1.1//EN" "http://www.w3.org/Graphics/SVG/1.1/DTD/svg11.dtd">
<svg version="1.1" id="Livello_1" xmlns="http://www.w3.org/2000/svg" xmlns:xlink="http://www.w3.org/1999/xlink" x="0px" y="0px"
	 width="31px" height="31px" viewBox="0 0 31 31" enable-background="new 0 0 31 31" xml:space="preserve">
<path fill="#FFFFFF" d="M23.126,7.404l0.913-1.123c1.251-1.535,0.998-3.777-0.567-5.006l-0.058-0.046
	C21.852,0,19.57,0.249,18.319,1.787L17.41,2.906L23.126,7.404z M23.126,7.404"/>
<path fill="#FFFFFF" d="M17.572,16.84c0.03,0.272,0.169,0.531,0.402,0.717c0.47,0.369,1.156,0.296,1.531-0.166l6.271-7.706
	c0.382-0.468,0.297-1.156-0.192-1.521c-0.473-0.352-1.153-0.252-1.525,0.203l-0.612,0.75L22.4,8.294l0.003-0.003l-5.713-4.5
	L2.072,21.743l5.716,4.498L21.044,9.965l1.048,0.824l-4.287,5.265C17.616,16.282,17.542,16.568,17.572,16.84L17.572,16.84z
	 M17.572,16.84"/>
<path fill="#FFFFFF" d="M6.839,27.071l-5.385-4.238c-0.088,0.295-0.132,0.555-0.132,0.555l-1.234,5.806
	C0,29.612,0.433,29.954,0.828,29.774l5.497-2.458C6.322,27.316,6.565,27.217,6.839,27.071L6.839,27.071z M6.839,27.071"/>
<path fill="#FFFFFF" d="M30.185,28.11c-0.047,0-0.091,0.003-0.139,0.01l-8.306,1.056c-0.426,0.053-0.724-0.405-0.494-0.764
	c0.125-0.189,0.247-0.382,0.368-0.575c0.321-0.512-0.108-1.192-0.703-1.192c-0.041,0-0.081,0.003-0.125,0.01L9.902,28.263
	L8.6,28.456L5.051,28.98c-0.402,0.06-0.673,0.396-0.639,0.797c0.014,0.179,0.088,0.349,0.206,0.475
	c0.139,0.15,0.332,0.233,0.541,0.233c0.041,0,0.081-0.003,0.125-0.01l12.975-1.917c0.442-0.066,0.747,0.425,0.487,0.784
	c-0.084,0.113-0.169,0.229-0.254,0.342c-0.233,0.313-0.179,0.833,0.091,1.103c0.139,0.139,0.314,0.212,0.5,0.212
	c0.021,0,0.044,0,0.064-0.003h0.007l11.2-1.401h0.006c0.193-0.03,0.362-0.14,0.474-0.309c0.122-0.186,0.166-0.416,0.111-0.621
	C30.858,28.33,30.561,28.11,30.185,28.11L30.185,28.11z M30.185,28.11"/>
</svg>
