<?xml version="1.0" encoding="utf-8"?>
<!-- Generator: Adobe Illustrator 15.0.0, SVG Export Plug-In . SVG Version: 6.00 Build 0)  -->
<!DOCTYPE svg PUBLIC "-//W3C//DTD SVG 1.1//EN" "http://www.w3.org/Graphics/SVG/1.1/DTD/svg11.dtd">
<svg version="1.1" id="Livello_1" xmlns="http://www.w3.org/2000/svg" xmlns:xlink="http://www.w3.org/1999/xlink" x="0px" y="0px"
	 width="40.434px" height="39.974px" viewBox="5.233 5.466 40.434 39.974" enable-background="new 5.233 5.466 40.434 39.974"
	 xml:space="preserve">
<path fill="#FFFFFF" d="M45.232,25.466c0-11.046-8.953-20-20-20c-11.046,0-20,8.954-20,20c0,11.046,8.954,20,20,20
	C36.279,45.465,45.232,36.51,45.232,25.466z M7.051,25.466c0-10.042,8.14-18.182,18.182-18.182c10.042,0,18.182,8.14,18.182,18.182
	c0,10.042-8.14,18.182-18.182,18.182C15.191,43.648,7.051,35.508,7.051,25.466z"/>
<path fill="#FFFFFF" d="M33.926,23.167H15.574c-1.554,0-2.823,1.216-2.823,2.667c0,1.447,1.269,2.666,2.823,2.666h18.352
	c1.551,0,2.824-1.219,2.824-2.668C36.75,24.383,35.477,23.167,33.926,23.167z"/>
</svg>
