<?xml version="1.0" encoding="utf-8"?>
<!-- Generator: Adobe Illustrator 15.0.0, SVG Export Plug-In . SVG Version: 6.00 Build 0)  -->
<!DOCTYPE svg PUBLIC "-//W3C//DTD SVG 1.1//EN" "http://www.w3.org/Graphics/SVG/1.1/DTD/svg11.dtd">
<svg version="1.1" id="Livello_1" xmlns="http://www.w3.org/2000/svg" xmlns:xlink="http://www.w3.org/1999/xlink" x="0px" y="0px"
	 width="30.438px" height="30.218px" viewBox="10.063 10.247 30.438 30.218" enable-background="new 10.063 10.247 30.438 30.218"
	 xml:space="preserve">
<path fill="#B3CCCB" d="M40.232,25.466c0-8.285-6.715-15-15-15s-15,6.715-15,15s6.715,15,15,15S40.232,33.75,40.232,25.466z
	 M11.597,25.466c0-7.531,6.105-13.636,13.636-13.636s13.636,6.105,13.636,13.636s-6.105,13.637-13.636,13.637
	S11.597,32.997,11.597,25.466z"/>
<path fill="#B3CCCB" d="M28.741,33.799l-0.271,1.166c-0.816,0.336-1.467,0.595-1.951,0.771C26.035,35.913,25.471,36,24.829,36
	c-0.987,0-1.754-0.254-2.301-0.756c-0.547-0.507-0.821-1.147-0.821-1.925c0-0.302,0.02-0.61,0.061-0.926
	c0.042-0.315,0.108-0.672,0.198-1.067l1.018-3.783c0.091-0.361,0.168-0.705,0.23-1.028s0.093-0.619,0.093-0.886
	c0-0.483-0.095-0.821-0.285-1.011s-0.552-0.285-1.09-0.285c-0.263,0-0.533,0.044-0.809,0.129c-0.277,0.086-0.514,0.168-0.713,0.246
	l0.272-1.166c0.667-0.285,1.305-0.528,1.915-0.731c0.61-0.203,1.186-0.305,1.731-0.305c0.98,0,1.734,0.249,2.266,0.745
	c0.531,0.497,0.797,1.142,0.797,1.936c0,0.165-0.018,0.454-0.055,0.868s-0.105,0.795-0.204,1.14l-1.014,3.767
	c-0.083,0.303-0.157,0.649-0.224,1.039c-0.066,0.387-0.099,0.682-0.099,0.879c0,0.5,0.106,0.843,0.319,1.023
	c0.214,0.182,0.584,0.271,1.109,0.271c0.246,0,0.526-0.047,0.838-0.135C28.373,33.948,28.6,33.87,28.741,33.799L28.741,33.799z
	 M28.997,17.987c0,0.656-0.235,1.217-0.709,1.677c-0.472,0.462-1.041,0.694-1.707,0.694c-0.669,0-1.239-0.232-1.717-0.694
	c-0.477-0.461-0.716-1.021-0.716-1.677c0-0.655,0.239-1.216,0.716-1.683c0.476-0.466,1.049-0.699,1.717-0.699
	c0.666,0,1.235,0.234,1.707,0.699C28.764,16.771,28.997,17.332,28.997,17.987L28.997,17.987z"/>
</svg>
