<?xml version="1.0" encoding="utf-8"?>
<!-- Generator: Adobe Illustrator 15.0.0, SVG Export Plug-In . SVG Version: 6.00 Build 0)  -->
<!DOCTYPE svg PUBLIC "-//W3C//DTD SVG 1.1//EN" "http://www.w3.org/Graphics/SVG/1.1/DTD/svg11.dtd">
<svg version="1.1" id="Livello_1" xmlns="http://www.w3.org/2000/svg" xmlns:xlink="http://www.w3.org/1999/xlink" x="0px" y="0px"
	 width="40px" height="40px" viewBox="5.233 5.466 40 40" enable-background="new 5.233 5.466 40 40" xml:space="preserve">
<path fill="#FDFDFE" d="M45.232,25.466c0-11.046-8.953-20-20-20c-11.046,0-20,8.954-20,20c0,11.046,8.954,20,20,20
	C36.279,45.465,45.232,36.51,45.232,25.466z M7.051,25.466c0-10.042,8.14-18.182,18.182-18.182c10.042,0,18.182,8.14,18.182,18.182
	c0,10.042-8.14,18.182-18.182,18.182C15.191,43.648,7.051,35.508,7.051,25.466z"/>
<path fill="#FDFDFE" d="M33.926,23.167H27.75v-0.524v-1.349v-4.97c0-1.554-1.141-2.823-2.5-2.823c-1.358,0-2.5,1.269-2.5,2.823v4.97
	v1.349v0.524h-0.857h-1.349h-4.97c-1.554,0-2.823,1.216-2.823,2.667c0,1.447,1.269,2.666,2.823,2.666h4.97h1.349h0.857v6.176
	c0,1.552,1.142,2.824,2.5,2.824c1.359,0,2.5-1.272,2.5-2.824V28.5h6.176c1.551,0,2.824-1.219,2.824-2.668
	C36.75,24.383,35.477,23.167,33.926,23.167z"/>
</svg>
