<?xml version="1.0" encoding="utf-8"?>
<!-- Generator: Adobe Illustrator 19.0.0, SVG Export Plug-In . SVG Version: 6.00 Build 0)  -->
<svg version="1.1" id="Livello_1" xmlns="http://www.w3.org/2000/svg" xmlns:xlink="http://www.w3.org/1999/xlink" x="0px" y="0px"
	 viewBox="0 0 40 40" style="enable-background:new 0 0 40 40;" xml:space="preserve">
<style type="text/css">
	.st0{fill:#43656F;}
</style>
<path class="st0" d="M34.7,14C34.7,14,34.6,14,34.7,14C34.2,6.3,27.7,0,20,0C12.3,0,5.8,6.3,5.4,14c0,0,0,0,0,0
	C2.4,14,0,16.4,0,19.3v5.4c0,3,2.4,5.4,5.3,5.4c2.9,0,5.3-2.4,5.3-5.4v-5.4c0-2-1.1-3.7-2.7-4.6c0-6.7,5.3-12,12-12
	c6.6,0,12,5.3,12,12c-1.6,0.9-2.7,2.6-2.7,4.6v5.4c0,2.1,1.2,3.9,2.9,4.7c-1.5,1.8-4.4,4.7-8.3,5.1c-0.6-1.5-2.1-2.6-3.7-2.6
	c-2.1,0-4,1.9-4,4c0,2.1,1.9,4,4,4c1.9,0,3.3-1.2,3.8-2.8c6-0.6,9.8-5.4,11.1-7.2c2.7-0.3,4.8-2.5,4.8-5.3v-5.4
	C40,16.4,37.6,14,34.7,14L34.7,14z M8,24.7c0,1.6-1.1,2.7-2.7,2.7c-1.6,0-2.7-1.1-2.7-2.7v-5.4c0-1.6,1.1-2.7,2.7-2.7
	c1.6,0,2.7,1.1,2.7,2.7V24.7z M20.3,37.3c-0.8,0-1.3-0.5-1.3-1.3c0-0.8,0.5-1.3,1.3-1.3c0.8,0,1.3,0.5,1.3,1.3
	C21.6,36.8,21.1,37.3,20.3,37.3L20.3,37.3z M37.3,24.7c0,1.6-1.1,2.7-2.7,2.7c-1.6,0-2.7-1.1-2.7-2.7v-5.4c0-1.6,1.1-2.7,2.7-2.7
	c1.6,0,2.7,1.1,2.7,2.7V24.7z M37.3,24.7"/>
</svg>
