<?xml version="1.0" encoding="utf-8"?>
<!-- Generator: Adobe Illustrator 19.0.0, SVG Export Plug-In . SVG Version: 6.00 Build 0)  -->
<svg version="1.1" id="Livello_1" xmlns="http://www.w3.org/2000/svg" xmlns:xlink="http://www.w3.org/1999/xlink" x="0px" y="0px"
	 viewBox="0 0 42 46" style="enable-background:new 0 0 42 46;" xml:space="preserve">
<style type="text/css">
	.st0{fill:#43656F;}
</style>
<path class="st0" d="M14.9,32.8c-1.3-0.8-3-0.4-3.8,0.9c-0.8,1.3-0.4,3,0.9,3.8c1.3,0.8,3,0.4,3.8-0.9
	C16.7,35.3,16.2,33.6,14.9,32.8z M13.6,35.2c0,0.1-0.1,0.1-0.2,0c-0.1,0-0.1-0.1,0-0.2c0-0.1,0.1-0.1,0.2,0
	C13.6,35.1,13.6,35.1,13.6,35.2z"/>
<path class="st0" d="M25.9,9.8c0.5,0.3,1.1,0.3,1.5,0c0,0.5,0.2,1,0.6,1.3l3.4,2.1c0.6,0.4,1.5,0.2,1.9-0.4c0.4-0.6,0.2-1.5-0.5-1.9
	l-3.4-2.1c-0.5-0.3-1-0.3-1.5,0c0.1-0.5-0.2-1-0.7-1.3c-0.7-0.4-1.5-0.2-1.9,0.4C25,8.6,25.2,9.4,25.9,9.8z"/>
<path class="st0" d="M39.8,10.7L23.6,0.8c-1.5-0.9-3.4-0.5-4.3,1L1.2,31.1c-0.9,1.4-0.4,3.3,1,4.2l16.2,9.9c1.5,0.9,3.4,0.5,4.3-1
	l18.1-29.3C41.7,13.5,41.2,11.6,39.8,10.7z M38.4,13.5L20.3,42.7c-0.1,0.1-0.3,0.2-0.4,0.1L3.7,32.9c-0.1-0.1-0.2-0.3-0.1-0.4
	L21.7,3.3c0.1-0.1,0.3-0.2,0.4-0.1l16.2,9.9C38.4,13.1,38.5,13.3,38.4,13.5z"/>
<path class="st0" d="M24.4,21.4c0.2-0.3,0.2-0.6,0.2-1c-0.1-0.3-0.3-0.6-0.6-0.8c-0.3-0.2-0.6-0.2-1-0.2l-5.2,1.2
	c-0.3,0.1-0.6,0.3-0.8,0.6c-0.2,0.3-0.2,0.6-0.2,1c0.1,0.3,0.3,0.6,0.6,0.8c0.3,0.2,0.6,0.2,1,0.2l5.2-1.2
	C23.9,21.9,24.2,21.7,24.4,21.4z"/>
<path class="st0" d="M24.7,22.6c-0.3-0.2-0.6-0.2-1-0.2L21.7,23c-0.7,0.2-1.1,0.8-0.9,1.5c0.1,0.3,0.3,0.6,0.6,0.8
	c0.3,0.2,0.6,0.2,1,0.2l2.1-0.5c0.3-0.1,0.6-0.3,0.8-0.6c0.2-0.3,0.2-0.6,0.2-1C25.2,23.1,25,22.8,24.7,22.6z"/>
<path class="st0" d="M33.9,15.7L21.7,8.3c-0.6-0.3-1.3-0.2-1.7,0.4L8.9,26.7c-0.3,0.6-0.2,1.3,0.4,1.6l12.1,7.4
	c0.6,0.3,1.3,0.2,1.7-0.4l11.2-18.1C34.6,16.8,34.5,16,33.9,15.7z M11.6,27l9.9-16.1l10.1,6.2l-9.9,16.1L11.6,27z"/>
</svg>
